<svg width="30" height="30" viewBox="0 0 30 30" fill="none" xmlns="http://www.w3.org/2000/svg">
<g id="home-svgrepo-com 1" clip-path="url(#clip0_1_98)">
<path id="Vector" d="M29.473 11.7924L25.7193 8.73305V3.84037C25.7193 3.28941 25.271 2.8411 24.72 2.8411H22.3581C21.8072 2.8411 21.3589 3.28941 21.3589 3.84037V5.17911L16.3432 1.09129C15.9803 0.795693 15.5022 0.632812 14.9967 0.632812C14.4933 0.632812 14.0173 0.794694 13.6565 1.08875L0.52677 11.7923C-0.0697925 12.2784 -0.0340005 12.7018 0.0403994 12.9109C0.114618 13.1196 0.353624 13.4697 1.11997 13.4697H2.91783V27.5454C2.91783 28.55 3.73287 29.3671 4.73468 29.3671H10.4123C11.4057 29.3671 12.1838 28.5669 12.1838 27.5454V21.7732C12.1838 21.2785 12.6384 20.828 13.1376 20.828H16.953C17.4288 20.828 17.816 21.2521 17.816 21.7732V27.5454C17.816 28.5329 18.6688 29.3671 19.6783 29.3671H25.2651C26.2669 29.3671 27.0819 28.5499 27.0819 27.5454V13.4697H28.8798C29.6461 13.4697 29.8851 13.1196 29.9594 12.9109C30.0338 12.7018 30.0696 12.2784 29.473 11.7924Z" fill="white"/>
</g>
<defs>
<clipPath id="clip0_1_98">
<rect width="30" height="30" fill="white"/>
</clipPath>
</defs>
</svg>
